<?xml version="1.0" encoding="utf-8"?>
<!-- Generator: Adobe Illustrator 22.0.0, SVG Export Plug-In . SVG Version: 6.00 Build 0)  -->
<svg version="1.1" id="图层_1" xmlns="http://www.w3.org/2000/svg" xmlns:xlink="http://www.w3.org/1999/xlink" x="0px" y="0px"
	 viewBox="0 0 55 50" style="enable-background:new 0 0 55 50;" xml:space="preserve">
<style type="text/css">
	.st0{opacity:0.102;fill:#232323;enable-background:new    ;}
	.st1{fill:#4C4948;}
</style>
<path class="st0" d="M42.1,19.1l-13.3,6.4c-1,0.3-2.1,0.3-3.1,0L12,19.1L10.2,18l-4.1-2c-1.7-0.8-2.4-2.7-1.7-4.4
	c0.3-0.7,1,4.6,1.4,4.6l19.6-9.6c1-0.3,2.1-0.3,3.1,0L48,16.2c1.5,0.6,2.3-3.6,1.6-2.1c-0.1,0.2-0.2,0.3-0.3,0.5
	c-0.3,0.7-1,1.4-1.4,1.4l-4.1,2L42.1,19.1z"/>
<path class="st1" d="M26.8,3.5c0.3,0,0.5,0,0.8,0.1L47,13.1h0.1h0.1c0.3,0.1,0.5,0.3,0.6,0.6c0.1,0.1,0.1,0.4,0,0.8
	c0,0.1-0.1,0.1-0.1,0.2l-0.1,0.1l-0.1,0.1c-0.1,0.1-0.2,0.3-0.3,0.4H47l-4.1,2l-3.8,1.9l3.8,1.7l3.8,1.7l0.1,0.1H47
	c0.6,0.2,1,0.7,1,1.3v0.1v0.1c0,0.7-0.4,1.3-1.1,1.5h-0.1h-0.1L43,27.6l-4,1.8l4,1.8l3.8,1.7l0.1,0.1H47c0.6,0.2,1,0.7,0.9,1.3v0.1
	v0.1c0,0.7-0.4,1.3-1.1,1.5h-0.1l-0.1,0.1l-18.9,9.2h-0.1h-0.1c0.1,0.2,0,0.2-0.1,0.2h-0.1h-0.2h-0.2h-0.1c-0.2,0-0.4,0-0.6-0.1
	L6.6,35.7c-0.4-0.2-0.6-0.6-0.6-1v-0.1v-0.1c0-0.5,0.3-1,0.8-1.2h0.1H7l4.1-2l3.6-1.8l-3.6-1.8l-4.1-2H6.9H6.8
	c-0.3-0.1-0.6-0.4-0.7-0.7s-0.1-0.7,0-1s0.4-0.6,0.7-0.7h0.1H7l4.1-2l3.6-1.8l-3.6-1.8l-4.1-2l0,0l0,0c-0.7-0.3-1-1.1-0.7-1.8
	c0.1-0.1,0.2-0.2,0.2-0.3l0.2-0.1L26,3.6C26.3,3.5,26.6,3.5,26.8,3.5 M26.8,1.5c-0.5,0-1,0.1-1.5,0.3L5.7,11.3c-0.3,0-1,0.7-1.4,1.4
	c-0.7,1.7,0,3.7,1.7,4.4l4.1,2l-4.1,2c-0.8,0.3-1.5,1-1.8,1.8c-0.7,1.7,0.1,3.6,1.8,4.4l4.1,2l-4.1,2c-1.3,0.5-2.1,1.7-2.1,3.1
	c-0.2,1.3,0.5,2.5,1.7,3.1l19.5,9.6c0.4,0.2,0.9,0.4,1.4,0.4c0.1,0,0.2,0,0.3,0c0.1,0,0.3,0,0.4,0c0.5,0,0.9-0.1,1.3-0.4l18.9-9.2
	c1.5-0.5,2.4-1.9,2.4-3.4c0.1-1.6-0.9-3-2.4-3.4l-3.8-1.7l3.8-1.7c1.5-0.5,2.4-1.9,2.4-3.4c0.1-1.6-0.9-3-2.4-3.4l-3.8-1.7l4.1-2
	c0.3,0,1-0.7,1.4-1.4c0.1-0.2,0.2-0.3,0.3-0.5c0.6-1.5-0.1-3.3-1.6-3.9L28.4,1.8C27.9,1.6,27.4,1.5,26.8,1.5L26.8,1.5z"/>
<g>
	<path class="st1" d="M27.7,26.9c-0.6,0-1.3-0.1-1.9-0.3h-0.1l-13.8-6.2l0.9-1.8l13.7,6.1c0.8,0.2,1.6,0.2,2.3,0L42,17.8l0.9,1.8
		l-13.5,7C28.9,26.8,28.3,26.9,27.7,26.9z"/>
</g>
<g>
	<path class="st1" d="M27.7,37.1c-0.6,0-1.3-0.1-1.9-0.3h-0.1L12,30.3l0.9-1.8l13.6,6.4c0.8,0.2,1.6,0.2,2.3,0L42,28l0.9,1.8
		l-13.5,7C28.9,37,28.3,37.1,27.7,37.1z"/>
</g>
</svg>
