<svg 
 xmlns="http://www.w3.org/2000/svg"
 xmlns:xlink="http://www.w3.org/1999/xlink"
 width="64px" height="64px">
<path fill-rule="evenodd"  fill-opacity="0" fill="rgb(255, 255, 255)"
 d="M-0.000,-0.000 L64.000,-0.000 L64.000,64.000 L-0.000,64.000 L-0.000,-0.000 Z"/>
<path fill-rule="evenodd"  fill="rgb(76, 73, 72)"
 d="M47.000,41.999 L30.000,41.999 L30.000,42.950 L28.000,42.950 L28.000,38.967 L30.000,38.967 L30.000,39.999 L47.000,39.999 C48.516,39.999 50.000,38.735 50.000,37.224 L50.000,26.767 C50.000,25.257 48.766,24.029 47.250,24.029 L38.000,24.029 L38.000,25.025 L35.999,25.025 L35.999,24.029 L35.999,22.037 L35.999,21.041 L38.000,21.041 L38.000,22.037 L47.250,22.037 C49.869,22.037 52.000,24.159 52.000,26.767 L52.000,37.224 C52.000,39.832 49.619,41.999 47.000,41.999 Z"/>
<path fill-rule="evenodd"  fill="rgb(76, 73, 72)"
 d="M36.000,25.000 L36.000,21.000 L38.000,21.000 L38.000,25.000 L36.000,25.000 ZM28.000,39.000 L30.000,39.000 L30.000,43.000 L28.000,43.000 L28.000,39.000 Z"/>
<path fill-rule="evenodd"  fill="rgb(76, 73, 72)"
 d="M29.999,25.999 L22.000,25.999 L22.000,19.999 L29.999,19.999 L35.054,21.217 L35.054,24.849 L29.999,25.999 ZM32.945,22.856 L29.999,21.999 L24.054,22.090 L24.054,23.975 L29.870,23.975 L32.945,23.208 L32.945,22.856 ZM26.999,38.999 L26.999,42.999 L22.000,43.999 L14.000,43.999 L14.000,37.999 L22.000,37.999 L26.999,38.999 ZM15.999,41.999 L22.000,41.999 L24.945,41.135 L24.945,40.782 L22.000,39.999 L15.999,39.999 L15.999,41.999 Z"/>
<path fill-rule="evenodd"  fill="rgb(76, 73, 72)"
 d="M20.999,25.950 L18.999,25.950 L19.000,19.999 L21.000,19.999 L21.000,20.975 L21.000,24.960 L20.999,25.950 ZM10.999,43.950 L10.999,37.999 L13.000,37.999 L13.000,38.975 L13.000,42.960 L12.999,43.950 L10.999,43.950 Z"/>
<path fill-rule="evenodd"  opacity="0.102" fill="rgb(23, 39, 58)"
 d="M24.000,24.000 L24.000,22.000 L34.000,22.000 L34.000,24.000 L24.000,24.000 ZM26.000,42.000 L16.000,42.000 L16.000,40.000 L26.000,40.000 L26.000,42.000 Z"/>
</svg>