<svg 
 xmlns="http://www.w3.org/2000/svg"
 xmlns:xlink="http://www.w3.org/1999/xlink"
 width="64px" height="64px">
<path fill-rule="evenodd"  fill-opacity="0" fill="rgb(255, 255, 255)"
 d="M-0.000,-0.000 L64.000,-0.000 L64.000,64.000 L-0.000,64.000 L-0.000,-0.000 Z"/>
<path fill-rule="evenodd"  opacity="0.102" fill="rgb(37, 52, 70)"
 d="M30.000,28.000 L60.000,28.000 C60.552,28.000 61.000,28.448 61.000,29.000 L61.000,38.000 C61.000,38.552 60.552,39.000 60.000,39.000 L30.000,39.000 C29.447,39.000 29.000,38.552 29.000,38.000 L29.000,29.000 C29.000,28.448 29.447,28.000 30.000,28.000 Z"/>
<path fill-rule="evenodd"  fill="rgb(76, 73, 72)"
 d="M29.000,29.000 L31.000,29.000 L31.000,35.000 L29.000,35.000 L29.000,29.000 Z"/>
<path fill-rule="evenodd"  fill="rgb(76, 73, 72)"
 d="M59.027,40.969 L24.040,40.969 L24.040,38.999 L23.010,38.999 C23.010,40.102 22.113,40.999 21.009,40.999 L20.009,40.999 L19.008,40.999 L10.004,40.999 C5.039,40.999 1.000,36.962 1.000,31.999 C1.000,27.036 5.039,22.999 10.004,22.999 L19.008,22.999 L20.009,22.999 L21.009,22.999 C22.113,22.999 23.010,23.897 23.010,24.999 L24.040,24.999 L24.040,23.029 L59.027,23.029 C60.666,23.029 61.999,24.361 61.999,25.999 L61.999,37.999 C61.999,39.637 60.666,40.969 59.027,40.969 ZM10.004,24.999 C6.142,24.999 3.001,28.140 3.001,31.999 C3.001,35.858 6.142,38.999 10.004,38.999 L17.007,38.999 L17.007,37.969 L13.506,37.969 C10.212,37.969 7.533,35.291 7.533,31.999 C7.533,28.707 10.212,26.030 13.506,26.030 L17.007,26.030 L17.007,24.999 L10.004,24.999 ZM17.007,36.029 L17.007,27.969 L13.506,27.969 C11.282,27.969 9.474,29.777 9.474,31.999 C9.474,34.221 11.282,36.029 13.506,36.029 L17.007,36.029 ZM24.010,26.999 L23.010,26.999 C21.906,26.999 21.009,26.102 21.009,24.999 L20.009,24.999 L19.008,24.999 L19.008,38.999 L20.009,38.999 L21.009,38.999 C21.009,37.896 21.906,36.999 23.010,36.999 L24.010,36.999 L24.010,26.999 ZM60.058,25.999 C60.058,25.432 59.595,24.969 59.027,24.969 L25.981,24.969 L25.981,24.999 L26.011,24.999 L26.011,38.999 L25.981,38.999 L25.981,39.029 L59.027,39.029 C59.595,39.029 60.058,38.567 60.058,37.999 L60.058,25.999 Z"/>
<path fill-rule="evenodd"  fill="rgb(76, 73, 72)"
 d="M50.023,34.999 L58.027,34.999 L58.027,36.999 L50.023,36.999 L50.023,34.999 ZM50.023,26.999 L58.027,26.999 L58.027,28.999 L50.023,28.999 L50.023,26.999 ZM57.026,32.999 L50.023,32.999 L50.023,30.999 L57.026,30.999 L57.026,32.999 Z"/>
</svg>