<svg 
 xmlns="http://www.w3.org/2000/svg"
 xmlns:xlink="http://www.w3.org/1999/xlink"
 width="64px" height="64px">
<path fill-rule="evenodd"  fill-opacity="0" fill="rgb(255, 255, 255)"
 d="M-0.000,-0.000 L64.000,-0.000 L64.000,64.000 L-0.000,64.000 L-0.000,-0.000 Z"/>
<path fill-rule="evenodd"  opacity="0.102" fill="rgb(23, 39, 58)"
 d="M11.000,32.000 L57.000,32.000 C57.552,32.000 58.000,32.448 58.000,33.000 L58.000,39.000 C58.000,39.552 57.552,40.000 57.000,40.000 L11.000,40.000 C10.448,40.000 10.000,39.552 10.000,39.000 L10.000,33.000 C10.000,32.448 10.448,32.000 11.000,32.000 Z"/>
<path fill-rule="evenodd"  fill="rgb(76, 73, 72)"
 d="M54.999,40.999 L8.999,40.999 C7.345,40.999 5.999,39.653 5.999,37.999 L5.999,30.999 C5.999,29.345 7.345,27.999 8.999,27.999 L10.586,27.999 L15.414,23.171 C16.170,22.415 17.174,21.999 18.242,21.999 L45.757,21.999 C46.825,21.999 47.829,22.415 48.585,23.171 L53.413,27.999 L54.999,27.999 C56.654,27.999 58.000,29.345 58.000,30.999 L58.000,37.999 C58.000,39.653 56.654,40.999 54.999,40.999 ZM47.171,24.585 C46.793,24.207 46.290,23.999 45.757,23.999 L18.242,23.999 C17.708,23.999 17.206,24.207 16.828,24.585 L13.413,27.999 L50.585,27.999 L47.171,24.585 ZM55.999,30.999 C55.999,30.447 55.551,29.999 54.999,29.999 L8.999,29.999 C8.448,29.999 7.999,30.447 7.999,30.999 L7.999,37.999 C7.999,38.551 8.448,38.999 8.999,38.999 L54.999,38.999 C55.551,38.999 55.999,38.551 55.999,37.999 L55.999,30.999 Z"/>
<path fill-rule="evenodd"  fill="rgb(76, 73, 72)"
 d="M44.999,34.999 L46.999,34.999 L46.999,36.999 L44.999,36.999 L44.999,34.999 ZM44.999,31.999 L46.999,31.999 L46.999,33.999 L44.999,33.999 L44.999,31.999 ZM40.999,34.999 L42.999,34.999 L42.999,36.999 L40.999,36.999 L40.999,34.999 ZM40.999,31.999 L42.999,31.999 L42.999,33.999 L40.999,33.999 L40.999,31.999 ZM16.999,34.999 L18.999,34.999 L18.999,36.999 L16.999,36.999 L16.999,34.999 ZM16.999,31.999 L18.999,31.999 L18.999,33.999 L16.999,33.999 L16.999,31.999 Z"/>
<path fill-rule="evenodd"  fill="rgb(76, 73, 72)"
 d="M51.499,36.999 C50.121,36.999 48.999,35.878 48.999,34.499 C48.999,33.120 50.121,31.999 51.499,31.999 C52.878,31.999 53.999,33.120 53.999,34.499 C53.999,35.878 52.878,36.999 51.499,36.999 ZM51.499,32.999 C50.672,32.999 49.999,33.672 49.999,34.499 C49.999,35.326 50.672,35.999 51.499,35.999 C52.326,35.999 52.999,35.326 52.999,34.499 C52.999,33.672 52.326,32.999 51.499,32.999 ZM12.500,36.999 C11.121,36.999 9.999,35.878 9.999,34.499 C9.999,33.120 11.121,31.999 12.500,31.999 C13.878,31.999 15.000,33.120 15.000,34.499 C15.000,35.878 13.878,36.999 12.500,36.999 ZM13.999,34.499 C13.999,33.672 13.327,32.999 12.500,32.999 C11.672,32.999 10.999,33.672 10.999,34.499 C10.999,35.326 11.672,35.999 12.500,35.999 C13.327,35.999 13.999,35.326 13.999,34.499 Z"/>
</svg>