<svg 
 xmlns="http://www.w3.org/2000/svg"
 xmlns:xlink="http://www.w3.org/1999/xlink"
 width="64px" height="64px">
<path fill-rule="evenodd"  fill-opacity="0" fill="rgb(255, 255, 255)"
 d="M-0.000,-0.000 L64.000,-0.000 L64.000,64.000 L-0.000,64.000 L-0.000,-0.000 Z"/>
<path fill-rule="evenodd"  fill="rgb(76, 73, 72)"
 d="M37.000,32.999 L21.000,32.999 C19.070,32.999 17.999,34.409 17.999,36.339 C17.999,38.269 19.070,39.999 21.000,39.999 L33.000,39.999 L33.000,38.999 L35.000,38.999 L35.000,42.999 L33.000,42.999 L33.000,41.999 L21.000,41.999 C17.967,41.999 15.999,39.371 15.999,36.339 C15.999,33.307 17.967,30.999 21.000,30.999 L37.000,30.999 C38.929,30.999 40.999,29.269 40.999,27.339 C40.999,25.409 38.929,23.999 37.000,23.999 L31.000,23.999 L31.000,24.999 L29.000,24.999 L29.000,20.999 L31.000,20.999 L31.000,21.999 L37.000,21.999 C40.032,21.999 42.999,24.307 42.999,27.339 C42.999,30.371 40.032,32.999 37.000,32.999 Z"/>
<path fill-rule="evenodd"  opacity="0.102" fill="rgb(48, 63, 80)"
 d="M37.000,44.000 L37.000,39.000 L54.000,39.000 L54.000,44.000 L37.000,44.000 ZM10.000,20.000 L27.000,20.000 L27.000,25.000 L10.000,25.000 L10.000,20.000 Z"/>
<path fill-rule="evenodd"  fill="rgb(76, 73, 72)"
 d="M53.000,44.999 L41.999,44.999 L38.000,44.999 L37.999,44.999 C36.896,44.999 35.999,44.101 35.999,42.999 L35.999,38.999 C35.999,37.897 36.896,36.999 37.999,36.999 L38.000,36.999 L41.999,36.999 L53.000,36.999 C54.102,36.999 55.000,37.897 55.000,38.999 L55.000,42.999 C55.000,44.101 54.102,44.999 53.000,44.999 ZM38.000,38.999 L38.000,42.999 L39.999,42.999 L39.999,38.999 L38.000,38.999 ZM53.000,38.999 L41.999,38.999 L41.999,42.999 L53.000,42.999 L53.000,38.999 ZM26.000,26.999 L25.999,26.999 L22.000,26.999 L10.999,26.999 C9.897,26.999 8.999,26.102 8.999,24.999 L8.999,20.999 C8.999,19.896 9.897,18.999 10.999,18.999 L22.000,18.999 L25.999,18.999 L26.000,18.999 C27.103,18.999 28.000,19.896 28.000,20.999 L28.000,24.999 C28.000,26.102 27.103,26.999 26.000,26.999 ZM22.000,20.999 L10.999,20.999 L10.998,20.999 L10.999,24.999 L22.000,24.999 L22.000,20.999 ZM25.999,20.999 L24.000,20.999 L24.000,24.999 L25.999,24.999 L25.999,20.999 Z"/>
<path fill-rule="evenodd"  fill="rgb(76, 73, 72)"
 d="M40.000,43.000 L40.000,39.000 L42.000,39.000 L42.000,43.000 L40.000,43.000 ZM22.000,21.000 L24.000,21.000 L24.000,25.000 L22.000,25.000 L22.000,21.000 Z"/>
</svg>