<svg 
 xmlns="http://www.w3.org/2000/svg"
 xmlns:xlink="http://www.w3.org/1999/xlink"
 width="64px" height="64px">
<path fill-rule="evenodd"  fill-opacity="0" fill="rgb(255, 255, 255)"
 d="M-0.000,-0.000 L64.000,-0.000 L64.000,64.000 L-0.000,64.000 L-0.000,-0.000 Z"/>
<path fill-rule="evenodd"  opacity="0.102" fill="rgb(23, 39, 58)"
 d="M18.000,25.000 L18.000,20.000 L23.000,20.000 L23.000,25.000 L18.000,25.000 ZM20.000,43.000 L15.000,43.000 L15.000,38.000 L20.000,38.000 L20.000,43.000 Z"/>
<path fill-rule="evenodd"  fill="rgb(76, 73, 72)"
 d="M15.993,25.023 L15.993,21.038 C15.993,19.910 16.914,18.992 18.045,18.992 L25.000,18.999 L25.000,26.999 L18.000,26.999 C16.868,26.999 15.993,26.151 15.993,25.023 ZM18.099,25.023 L22.984,24.978 L22.984,21.092 L18.045,21.092 L18.099,25.023 ZM22.000,44.999 L15.049,45.000 C13.917,45.000 12.997,44.083 12.997,42.954 L12.997,38.969 C12.997,37.841 13.868,36.999 15.000,36.999 L22.000,36.999 L22.000,44.999 ZM19.988,39.023 L15.049,39.023 L15.103,42.954 L19.988,42.909 L19.988,39.023 Z"/>
<path fill-rule="evenodd"  fill="rgb(76, 73, 72)"
 d="M41.012,41.958 L25.032,41.958 L25.032,39.966 L35.045,39.966 C32.610,38.147 31.025,35.257 31.025,31.996 C31.025,26.503 35.505,22.034 41.012,22.034 C46.520,22.034 51.000,26.503 51.000,31.996 C51.000,37.489 46.520,41.958 41.012,41.958 ZM41.012,24.027 C36.607,24.027 33.022,27.602 33.022,31.996 C33.022,36.391 36.607,39.966 41.012,39.966 C45.418,39.966 49.002,36.391 49.002,31.996 C49.002,27.602 45.418,24.027 41.012,24.027 ZM28.029,24.027 L28.029,22.034 L34.393,22.034 C33.542,22.597 32.776,23.272 32.097,24.027 L28.029,24.027 ZM26.031,25.023 L26.031,21.038 L28.029,21.038 L28.000,24.999 L26.031,25.023 ZM23.035,38.969 L25.000,38.999 L25.000,42.999 L23.035,42.954 L23.035,38.969 Z"/>
<path fill-rule="evenodd"  fill="rgb(76, 73, 72)"
 d="M26.000,25.000 L26.000,21.000 L28.000,21.000 L28.000,25.000 L26.000,25.000 ZM23.000,39.000 L25.000,39.000 L25.000,43.000 L23.000,43.000 L23.000,39.000 Z"/>
</svg>