<svg 
 xmlns="http://www.w3.org/2000/svg"
 xmlns:xlink="http://www.w3.org/1999/xlink"
 width="64px" height="64px">
<path fill-rule="evenodd"  fill-opacity="0" fill="rgb(255, 255, 255)"
 d="M-0.000,-0.000 L64.000,-0.000 L64.000,64.000 L-0.000,64.000 L-0.000,-0.000 Z"/>
<path fill-rule="evenodd"  opacity="0.102" fill="rgb(23, 39, 58)"
 d="M17.000,28.000 L58.000,28.000 C58.552,28.000 59.000,28.448 59.000,29.000 L59.000,39.000 C59.000,39.552 58.552,40.000 58.000,40.000 L17.000,40.000 C16.448,40.000 16.000,39.552 16.000,39.000 L16.000,29.000 C16.000,28.448 16.448,28.000 17.000,28.000 Z"/>
<path fill-rule="evenodd"  fill="rgb(76, 73, 72)"
 d="M57.000,40.999 L11.000,40.999 L11.000,39.999 L10.000,39.999 C10.000,41.101 9.103,41.999 8.000,41.999 L6.000,41.999 C4.897,41.999 4.000,41.101 4.000,39.999 L4.000,23.999 C4.000,22.896 4.897,21.999 6.000,21.999 L8.000,21.999 C9.103,21.999 10.000,22.896 10.000,23.999 L11.000,23.999 L11.000,22.999 L57.000,22.999 C58.654,22.999 60.000,24.345 60.000,25.999 L60.000,37.999 C60.000,39.653 58.654,40.999 57.000,40.999 ZM11.000,25.999 L10.000,25.999 C8.897,25.999 8.000,25.101 8.000,23.999 L6.000,23.999 L6.000,39.999 L8.000,39.999 C8.000,38.896 8.897,37.999 10.000,37.999 L11.000,37.999 L11.000,25.999 ZM58.000,25.999 C58.000,25.447 57.551,24.999 57.000,24.999 L13.000,24.999 L13.000,38.999 L57.000,38.999 C57.551,38.999 58.000,38.551 58.000,37.999 L58.000,25.999 Z"/>
<path fill-rule="evenodd"  fill="rgb(76, 73, 72)"
 d="M16.000,29.000 L18.000,29.000 L18.000,35.000 L16.000,35.000 L16.000,29.000 Z"/>
<path fill-rule="evenodd"  fill="rgb(76, 73, 72)"
 d="M46.000,34.999 L56.000,34.999 L56.000,36.999 L46.000,36.999 L46.000,34.999 ZM46.000,26.999 L56.000,26.999 L56.000,28.999 L46.000,28.999 L46.000,26.999 ZM55.000,32.999 L46.000,32.999 L46.000,30.999 L55.000,30.999 L55.000,32.999 Z"/>
</svg>