<svg 
 xmlns="http://www.w3.org/2000/svg"
 xmlns:xlink="http://www.w3.org/1999/xlink"
 width="64px" height="64px">
<path fill-rule="evenodd"  fill-opacity="0" fill="rgb(255, 255, 255)"
 d="M-0.000,-0.000 L64.000,-0.000 L64.000,64.000 L-0.000,64.000 L-0.000,-0.000 Z"/>
<path fill-rule="evenodd"  opacity="0.102" fill="rgb(23, 39, 58)"
 d="M12.000,32.000 L55.000,32.000 L55.000,40.000 L12.000,40.000 L12.000,32.000 Z"/>
<path fill-rule="evenodd"  fill="rgb(76, 73, 72)"
 d="M57.000,37.999 C57.000,39.653 55.654,40.999 54.000,40.999 L8.999,40.999 C7.345,40.999 5.999,39.653 5.999,37.999 L5.999,30.999 C5.999,29.915 6.583,28.973 7.446,28.445 L7.292,28.292 L12.414,23.171 C13.170,22.415 14.174,21.999 15.242,21.999 L47.757,21.999 C48.825,21.999 49.829,22.415 50.585,23.171 L55.707,28.292 L55.553,28.445 C56.416,28.973 57.000,29.915 57.000,30.999 L57.000,37.999 ZM49.171,24.585 C48.793,24.207 48.290,23.999 47.757,23.999 L15.242,23.999 C14.709,23.999 14.206,24.207 13.828,24.585 L10.414,27.999 L52.586,27.999 L49.171,24.585 ZM55.000,30.999 C55.000,30.447 54.551,29.999 54.000,29.999 L8.999,29.999 C8.448,29.999 7.999,30.447 7.999,30.999 L7.999,37.999 C7.999,38.551 8.448,38.999 8.999,38.999 L54.000,38.999 C54.551,38.999 55.000,38.551 55.000,37.999 L55.000,30.999 Z"/>
<path fill-rule="evenodd"  fill="rgb(76, 73, 72)"
 d="M50.999,36.999 L50.999,34.999 L53.000,34.999 L53.000,36.999 L50.999,36.999 ZM50.999,31.999 L53.000,31.999 L53.000,33.999 L50.999,33.999 L50.999,31.999 ZM47.000,34.999 L49.000,34.999 L49.000,36.999 L47.000,36.999 L47.000,34.999 ZM47.000,31.999 L49.000,31.999 L49.000,33.999 L47.000,33.999 L47.000,31.999 ZM42.999,34.999 L44.999,34.999 L44.999,36.999 L42.999,36.999 L42.999,34.999 ZM42.999,31.999 L44.999,31.999 L44.999,33.999 L42.999,33.999 L42.999,31.999 ZM39.000,34.999 L41.000,34.999 L41.000,36.999 L39.000,36.999 L39.000,34.999 ZM39.000,31.999 L41.000,31.999 L41.000,33.999 L39.000,33.999 L39.000,31.999 Z"/>
<path fill-rule="evenodd"  fill="rgb(76, 73, 72)"
 d="M12.000,34.999 L15.999,34.999 L15.999,36.999 L12.000,36.999 L12.000,34.999 ZM12.000,31.999 L15.999,31.999 L15.999,33.999 L12.000,33.999 L12.000,31.999 Z"/>
</svg>