<svg 
 xmlns="http://www.w3.org/2000/svg"
 xmlns:xlink="http://www.w3.org/1999/xlink"
 width="64px" height="64px">
<path fill-rule="evenodd"  fill-opacity="0" fill="rgb(255, 255, 255)"
 d="M-0.000,-0.000 L64.000,-0.000 L64.000,64.000 L-0.000,64.000 L-0.000,-0.000 Z"/>
<path fill-rule="evenodd"  fill-opacity="0" fill="rgb(255, 255, 255)"
 d="M22.000,17.000 L41.000,17.000 L41.000,46.000 L22.000,46.000 L22.000,17.000 Z"/>
<path fill-rule="evenodd"  opacity="0.102" fill="rgb(23, 39, 58)"
 d="M25.000,20.000 L42.000,20.000 C42.552,20.000 43.000,20.448 43.000,21.000 L43.000,46.000 C43.000,46.552 42.552,47.000 42.000,47.000 L25.000,47.000 C24.447,47.000 24.000,46.552 24.000,46.000 L24.000,21.000 C24.000,20.448 24.447,20.000 25.000,20.000 Z"/>
<path fill-rule="evenodd"  fill="rgb(76, 73, 72)"
 d="M41.000,48.000 L22.000,48.000 C20.895,48.000 20.000,47.105 20.000,46.000 L20.000,17.000 C20.000,15.895 20.895,15.000 22.000,15.000 L41.000,15.000 C42.104,15.000 43.000,15.895 43.000,17.000 L43.000,46.000 C43.000,47.105 42.104,48.000 41.000,48.000 ZM41.000,17.000 L22.000,17.000 L22.000,46.000 L41.000,46.000 L41.000,17.000 Z"/>
<path fill-rule="evenodd"  fill="rgb(76, 73, 72)"
 d="M37.000,49.000 L37.000,48.000 L39.000,48.000 L39.000,49.000 L37.000,49.000 ZM25.000,48.000 L27.000,48.000 L27.000,49.000 L25.000,49.000 L25.000,48.000 Z"/>
<path fill-rule="evenodd"  fill="rgb(76, 73, 72)"
 d="M33.000,40.000 L33.000,38.000 L39.000,38.000 L39.000,40.000 L33.000,40.000 ZM33.000,30.000 L39.000,30.000 L39.000,32.000 L33.000,32.000 L33.000,30.000 ZM33.000,22.000 L39.000,22.000 L39.000,24.000 L33.000,24.000 L33.000,22.000 ZM27.000,38.000 L29.000,38.000 L29.000,40.000 L27.000,40.000 L27.000,38.000 ZM27.000,22.000 L29.000,22.000 L29.000,24.000 L27.000,24.000 L27.000,22.000 ZM24.000,38.000 L26.000,38.000 L26.000,40.000 L24.000,40.000 L24.000,38.000 ZM24.000,22.000 L26.000,22.000 L26.000,24.000 L24.000,24.000 L24.000,22.000 Z"/>
<path fill-rule="evenodd"  fill="rgb(76, 73, 72)"
 d="M27.000,32.000 L27.000,30.000 L29.000,30.000 L29.000,32.000 L27.000,32.000 ZM24.000,30.000 L26.000,30.000 L26.000,32.000 L24.000,32.000 L24.000,30.000 Z"/>
</svg>