<svg 
 xmlns="http://www.w3.org/2000/svg"
 xmlns:xlink="http://www.w3.org/1999/xlink"
 width="64px" height="64px">
<path fill-rule="evenodd"  fill-opacity="0" fill="rgb(255, 255, 255)"
 d="M-0.000,-0.000 L64.000,-0.000 L64.000,64.000 L-0.000,64.000 L-0.000,-0.000 Z"/>
<path fill-rule="evenodd"  fill="rgb(76, 73, 72)"
 d="M38.754,32.992 L20.586,32.992 C18.638,32.992 17.053,34.555 17.053,36.477 C17.053,38.399 19.052,39.999 21.000,39.999 L35.000,39.999 L35.000,38.999 L37.000,38.999 L37.000,42.999 L35.000,42.999 L35.000,41.999 L21.000,41.999 C17.939,41.999 15.035,39.497 15.035,36.477 C15.035,33.457 17.525,31.000 20.586,31.000 L38.754,31.000 C40.702,31.000 42.287,29.436 42.287,27.514 C42.287,25.592 40.702,24.029 38.754,24.029 L29.000,24.029 L29.000,24.999 L27.000,24.999 L27.000,20.999 L29.000,20.999 L29.000,22.037 L38.754,22.037 C41.815,22.037 44.305,24.494 44.305,27.514 C44.305,30.534 41.815,32.992 38.754,32.992 Z"/>
<path fill-rule="evenodd"  opacity="0.102" fill="rgb(23, 39, 58)"
 d="M40.000,42.000 L40.000,40.000 L51.000,40.000 L51.000,42.000 L40.000,42.000 ZM14.000,22.000 L25.000,22.000 L25.000,24.000 L14.000,24.000 L14.000,22.000 Z"/>
<path fill-rule="evenodd"  fill="rgb(76, 73, 72)"
 d="M35.000,43.000 L35.000,39.000 L37.000,39.000 L37.000,43.000 L35.000,43.000 ZM27.000,21.000 L29.000,21.000 L29.000,25.000 L27.000,25.000 L27.000,21.000 Z"/>
<path fill-rule="evenodd"  fill="rgb(76, 73, 72)"
 d="M38.000,42.999 L38.000,38.999 L43.000,37.999 L51.000,37.999 L51.000,43.999 L43.000,43.999 L38.000,42.999 ZM49.000,39.999 L42.951,40.016 L39.846,40.782 L39.846,41.135 L43.000,41.999 L49.000,41.999 L49.000,39.999 ZM13.000,25.999 L13.000,19.999 L21.000,19.999 L26.000,20.999 L26.000,24.999 L21.000,25.999 L13.000,25.999 ZM24.036,22.856 L21.000,21.999 L15.000,21.999 L15.000,23.999 L21.000,23.999 L24.036,23.208 L24.036,22.856 Z"/>
<path fill-rule="evenodd"  fill="rgb(76, 73, 72)"
 d="M51.904,43.947 L52.000,37.999 L54.932,38.967 L54.932,42.950 L51.904,43.947 ZM9.000,20.999 L11.978,20.045 L11.978,26.020 L9.000,24.999 L9.000,20.999 Z"/>
</svg>