<?xml version="1.0" encoding="utf-8"?>
<!-- Generator: Adobe Illustrator 22.0.0, SVG Export Plug-In . SVG Version: 6.00 Build 0)  -->
<svg version="1.1" id="图层_1" xmlns="http://www.w3.org/2000/svg" xmlns:xlink="http://www.w3.org/1999/xlink" x="0px" y="0px"
	 viewBox="0 0 55 50" style="enable-background:new 0 0 55 50;" xml:space="preserve">
<style type="text/css">
	.st0{fill:#4C4948;}
	.st1{opacity:0.102;fill:#232323;enable-background:new    ;}
</style>
<path class="st0" d="M51.4,44.5h-6.2c-0.6,0-4,0-4.6,0h-37c-0.6,0-1.1-0.5-1.1-1.1V11.7c0-0.6,0.5-1.1,1.1-1.1h3.2v-4
	c0-0.6,0.5-1.1,1.1-1.1h13.9c2.3,0,4.3,1,5.7,2.8c0.3-0.4,0.6-0.7,1-1c0.4-0.4,0.9-0.7,1.4-1v0.1c0.9-0.4,2-0.7,3.1-0.7h13.9
	c0.6,0,1.1,0.5,1.1,1.1v4h3.2c0.6,0,1.1,0.5,1.1,1.1V19h0.2v24.4C52.5,44,52,44.5,51.4,44.5z M6.8,12.8H4.6v29.5h2.1V12.8H6.8z
	 M40.6,42.4c0.6,0,4,0,4.6,0h0.9v-3H33.2c-2,0-3.8,1.2-4.7,3H40.6z M8.9,42.4h17.6c-0.8-1.8-2.6-3-4.7-3H8.9V42.4z M21.8,7.6H8.9
	v29.5h12.9c1.7,0,3.4,0.6,4.7,1.7V18l0,0l-0.2-7.2C26,10.1,25.8,9.4,25.2,9l-0.3-0.3C24,8,22.9,7.6,21.8,7.6z M46.1,19V7.9H33
	c-1.1,0-2.2,0.4-3.1,1l0,0c-0.6,0.5-1,1.1-1.4,1.7v28.2c1.3-1.1,2.9-1.7,4.7-1.7h12.9V19L46.1,19z M50.4,19v-6.1h-2.2V19l0,0v23.3
	h2.1V19H50.4z"/>
<path class="st1" d="M51.4,44.5h-6.2c-0.6,0-4,0-4.6,0h-37c-0.6,0-1.1-0.5-1.1-1.1V21.7c0-0.6,0.5-1.1,1.1-1.1h3.2v-4.1
	c0-0.6,0.5-1.1,1.1-1.1h13.9c2.3,0,4.3,1,5.7,2.8c0.3-0.4,0.6-0.7,1-1c0.4-0.4,0.9-0.7,1.4-1v0.1c0.9-0.4,2-0.7,3.1-0.7h13.9
	c0.6,0,1.1,0.5,1.1,1.1v4h3.2c0.6,0,1.1,0.5,1.1,1.1v7.1h0.2v14.4C52.5,44,52,44.5,51.4,44.5z M6.8,22.8H4.6v19.5h2.1V22.8H6.8z
	 M40.6,42.4c0.6,0,4,0,4.6,0h0.9v-3H33.2c-2,0-3.8,1.2-4.7,3H40.6z M8.9,42.4h17.6c-0.8-1.8-2.6-3-4.7-3H8.9V42.4z M50.1,29v-6.1H48
	V29h0.2v13.3h2.1V29H50.1z"/>
</svg>
