<?xml version="1.0" encoding="utf-8"?>
<!-- Generator: Adobe Illustrator 22.0.0, SVG Export Plug-In . SVG Version: 6.00 Build 0)  -->
<svg version="1.1" id="图层_1" xmlns="http://www.w3.org/2000/svg" xmlns:xlink="http://www.w3.org/1999/xlink" x="0px" y="0px"
	 viewBox="0 0 55 50" style="enable-background:new 0 0 55 50;" xml:space="preserve">
<style type="text/css">
	.st0{opacity:0.102;fill:#232323;enable-background:new    ;}
	.st1{fill:#4C4948;}
</style>
<path class="st0" d="M7,32h45c0.6,0,1,0.4,1,1v9c0,0.6-0.4,1-1,1H7c-0.6,0-1-0.4-1-1v-9C6,32.4,6.4,32,7,32z"/>
<path class="st1" d="M47,39v-2h2v2H47z M47,33h2v2h-2V33z M44,37h2v2h-2V37z M44,33h2v2h-2V33z M41,37h2v2h-2V37z M41,33h2v2h-2V33z
	 M38,37h2v2h-2V37z M38,33h2v2h-2V33z M35,37h2v2h-2V37z M35,33h2v2h-2V33z M7,37h4v2H7V37z M7,33h4v2H7V33z"/>
<path class="st1" d="M51,29.8V41H3V29.8H51 M53,27.8H1V41c0,1.1,0.9,2,2,2h48c1.1,0,2-0.9,2-2V27.8L53,27.8z"/>
<path class="st1" d="M42.2,8c0.1,0,0.2,0.1,0.2,0.2v0.4L42.5,9l8.4,18.9c0,0,0,0-0.1,0H3.2c0,0,0,0-0.1,0L11.5,9l0.2-0.4V8.2
	c0-0.1,0.1-0.2,0.2-0.2H42.2 M42.2,6H11.8c-1.2,0-2.2,1-2.2,2.2L1,27.8C1,29,2,30,3.2,30h47.7c1.2,0,2.2-1,2.2-2.2L44.3,8.2
	C44.3,7,43.4,6,42.2,6L42.2,6z"/>
<path class="st1" d="M30.7,12.9l-3-2.6c0,0,0,0-0.1-0.1c0,0,0,0-0.1,0l-0.1-0.1h-0.1h-0.1l0,0C27.1,10,27,10,27,10l0,0
	c0,0-0.1,0-0.2,0l0,0c0,0,0,0-0.1,0h-0.1l0,0l0,0c-0.1,0-0.1,0.1-0.2,0.1l0,0c0,0-0.1,0-0.1,0.1l-2.9,2.6c-0.3,0.3-0.4,0.5-0.4,0.8
	s0.1,0.5,0.3,0.7c0.2,0.2,0.5,0.3,0.7,0.3c0.3,0,0.6-0.1,0.8-0.3l1.1-1V23c0,0.5,0.5,1,1.1,1s1.1-0.4,1.1-1v-9.7l1.1,1
	c0.2,0.2,0.5,0.3,0.8,0.3s0.6-0.1,0.8-0.3l0,0C31.1,13.8,31.1,13.2,30.7,12.9L30.7,12.9z"/>
</svg>
