<?xml version="1.0" encoding="utf-8"?>
<!-- Generator: Adobe Illustrator 22.0.0, SVG Export Plug-In . SVG Version: 6.00 Build 0)  -->
<svg version="1.1" id="图层_1" xmlns="http://www.w3.org/2000/svg" xmlns:xlink="http://www.w3.org/1999/xlink" x="0px" y="0px"
	 viewBox="0 0 55 50" style="enable-background:new 0 0 55 50;" xml:space="preserve">
<style type="text/css">
	.st0{fill:#4C4948;}
	.st1{fill:#E1E1E1;}
</style>
<g>
	<path class="st0" d="M22.6,48.1c-0.5-0.1-0.8-0.4-1.2-0.8c-0.3-0.4-0.5-0.9-0.5-1.3v-0.4H5.5v-2.6H21v-0.4c0.1-0.8,0.6-1.7,1.4-1.9
		c0.4-0.1,0.4-0.1,2.1-0.3h1.7v-3.9h2.6v3.9h1.7c1.7,0,1.7,0,2.1,0.3c0.8,0.4,1.4,1.2,1.4,1.9v0.4h15.5v2.6H34v0.4
		c-0.1,0.8-0.6,1.7-1.4,1.9l-0.4,0.3h-4.5h-4.5L22.6,48.1L22.6,48.1z M31.4,44.4v-1.3h-7.6v2.6h7.6V44.4z"/>
</g>
<g>
	<path class="st0" d="M26.2,35.5h2.6v7.6h-2.6V35.5z"/>
</g>
<g>
	<path class="st1" d="M12,9.5h36.2V34H12V9.5z"/>
</g>
<g>
	<path class="st0" d="M46.9,37.9H8.1c-2.2,0-3.9-1.7-3.9-3.9V5.6c0-2.2,1.7-3.9,3.9-3.9h38.8c2.2,0,3.9,1.7,3.9,3.9V34
		C50.8,36.2,49.1,37.9,46.9,37.9z M8.1,4.3c-0.8,0-1.3,0.5-1.3,1.3V34c0,0.8,0.5,1.3,1.3,1.3h38.8c0.8,0,1.3-0.5,1.3-1.3V5.6
		c0-0.8-0.5-1.3-1.3-1.3H8.1z"/>
</g>
<g>
	<polygon class="st0" points="18.1,23.3 16.3,21.5 24.8,13 29.4,18.7 36.9,11.2 38.7,13 29.2,22.5 24.5,16.9 	"/>
</g>
</svg>
