<?xml version="1.0" encoding="utf-8"?>
<!-- Generator: Adobe Illustrator 22.0.0, SVG Export Plug-In . SVG Version: 6.00 Build 0)  -->
<svg version="1.1" id="图层_1" xmlns="http://www.w3.org/2000/svg" xmlns:xlink="http://www.w3.org/1999/xlink" x="0px" y="0px"
	 viewBox="0 0 55 50" style="enable-background:new 0 0 55 50;" xml:space="preserve">
<style type="text/css">
	.st0{fill:#4C4948;}
	.st1{opacity:0.102;fill:#232323;enable-background:new    ;}
</style>
<path class="st0" d="M43,10H11c-0.6,0-1-0.4-1-1s0.4-1,1-1h32c0.6,0,1,0.4,1,1S43.6,10,43,10z M37,5H17c-0.6,0-1-0.4-1-1s0.4-1,1-1
	h20c0.6,0,1,0.4,1,1S37.6,5,37,5z"/>
<path class="st1" d="M13,19h32c1.1,0,2,0.9,2,2v24H11V21C11,19.9,11.9,19,13,19z"/>
<g>
	<path class="st0" d="M47,15v28H7V15H47 M47,13H7c-1.1,0-2,0.9-2,2v28c0,1.1,0.9,2,2,2h40c1.1,0,2-0.9,2-2V15C49,13.9,48.1,13,47,13
		L47,13z"/>
</g>
<path class="st0" d="M23.3,34.1l3,2.6c0,0,0,0,0.1,0.1c0,0,0,0,0.1,0l0.1,0.1h0.1h0.1l0,0c0.1,0,0.2,0,0.2,0l0,0c0,0,0.1,0,0.2,0
	l0,0c0,0,0,0,0.1,0h0.1l0,0l0,0c0.1,0,0.1-0.1,0.2-0.1l0,0c0,0,0.1,0,0.1-0.1l2.9-2.6c0.2-0.2,0.3-0.4,0.3-0.7s-0.1-0.5-0.3-0.7
	c-0.2-0.2-0.5-0.3-0.7-0.3c-0.3,0-0.6,0.1-0.8,0.3l-1.1,1V24c0-0.5-0.5-1-1.1-1S26,23.4,26,24v9.8l-1.1-1c-0.2-0.2-0.5-0.3-0.8-0.3
	s-0.6,0.1-0.8,0.3l0,0C22.9,33.2,22.9,33.8,23.3,34.1L23.3,34.1z"/>
</svg>
