<?xml version="1.0" encoding="utf-8"?>
<!-- Generator: Adobe Illustrator 22.0.0, SVG Export Plug-In . SVG Version: 6.00 Build 0)  -->
<svg version="1.1" id="图层_1" xmlns="http://www.w3.org/2000/svg" xmlns:xlink="http://www.w3.org/1999/xlink" x="0px" y="0px"
	 viewBox="0 0 55 50" style="enable-background:new 0 0 55 50;" xml:space="preserve">
<style type="text/css">
	.st0{fill:#E1E1E1;}
	.st1{fill:#4C4948;}
</style>
<path class="st0" d="M10.4,35.5v-5.3h36.8v5.3H10.4z M10.4,19.7h36.8V25H10.4V19.7z M10.4,9.2h36.8v5.3H10.4V9.2z"/>
<path class="st1" d="M47.1,14.5c0.1,0.3,0.1,0.5,0.1,0.5v9.5c0,0,0,0.3-0.1,0.5c0,0.3,0.1,0.4,0.1,0.4v9.3c0,0,0.1,1.8-1.8,1.8
	c-2,0-17.7,0-17.7,0s-16.3,0.3-17.9,0.3c-1.8,0-1.8-1.7-1.8-1.7s-0.1-0.5-0.1-5v-4.6c0,0,0-0.3,0.1-0.5c-0.1-0.3-0.1-0.5-0.1-0.5V15
	c0,0,0-0.3,0.1-0.5C7.8,14.1,7.8,14,7.8,14V4.5c0,0,0-1.8,1.8-1.8h35.6c2,0,2,1.8,2,1.8V14C47.2,14,47.2,14.2,47.1,14.5z M44.6,9.2
	V5.3H10.4v7.9h34.2V9.2z M44.6,19.7v-3.9H10.4v7.9h34.2V19.7z M44.6,30.3v-3.9H17c-2.8,0-5.3,0-6.6,0v7.9h34.2V30.3z M14.4,28.9
	c0.8,0,1.3,0.7,1.3,1.3l0,0c0,0.8-0.7,1.3-1.3,1.3c-0.8,0-1.3-0.7-1.3-1.3C13,29.5,13.6,28.9,14.4,28.9z M20.9,28.9
	c0.8,0,1.3,0.7,1.3,1.3c0,0.8-0.7,1.3-1.3,1.3c-0.8,0-1.3-0.7-1.3-1.3C19.6,29.5,20.1,28.9,20.9,28.9z M14.4,18.4
	c0.8,0,1.3,0.7,1.3,1.3l0,0c0,0.8-0.7,1.3-1.3,1.3c-0.8,0-1.3-0.7-1.3-1.3S13.6,18.4,14.4,18.4z M20.9,18.4c0.8,0,1.3,0.7,1.3,1.3
	c0,0.8-0.7,1.3-1.3,1.3c-0.8,0-1.3-0.7-1.3-1.3S20.1,18.4,20.9,18.4z M14.4,7.9c0.8,0,1.3,0.7,1.3,1.3l0,0c0,0.8-0.7,1.3-1.3,1.3
	c-0.8,0-1.3-0.7-1.3-1.3C13,8.6,13.6,7.9,14.4,7.9z M20.9,7.9c0.8,0,1.3,0.7,1.3,1.3c0,0.7-0.7,1.3-1.3,1.3c-0.8,0-1.3-0.7-1.3-1.3
	C19.6,8.6,20.1,7.9,20.9,7.9z"/>
<path class="st1" d="M22.5,47.2c-0.5-0.1-0.8-0.4-1.2-0.8c-0.3-0.4-0.5-0.9-0.5-1.3v-0.4H3.9v-2.6h17.1v-0.4c0.1-0.8,0.7-1.7,1.4-2
	c0.4-0.1,0.4-0.1,2.1-0.3h1.7v-3.9h2.6v3.9h1.7c1.7,0,1.7,0,2.1,0.3c0.8,0.4,1.4,1.2,1.4,2v0.4h17.1v2.6H34.1v0.4
	c-0.1,0.8-0.7,1.7-1.4,2l-0.4,0.3h-4.6H23L22.5,47.2L22.5,47.2z M31.4,43.4v-1.3h-7.8v2.6h7.8V43.4z"/>
</svg>
